<?xml version="1.0" encoding="utf-8"?>
<!-- Generator: Adobe Illustrator 23.1.0, SVG Export Plug-In . SVG Version: 6.00 Build 0)  -->
<svg version="1.1" id="Слой_1" xmlns="http://www.w3.org/2000/svg" xmlns:xlink="http://www.w3.org/1999/xlink" x="0px" y="0px"
	 viewBox="0 0 85.04 85.04" style="enable-background:new 0 0 85.04 85.04;" xml:space="preserve">
<style type="text/css">
	.st0{fill:#70BFD9;}
</style>
<ellipse class="st0" cx="44.84" cy="40.22" rx="20.95" ry="19.79"/>
<g>
	<g>
		<path d="M56.48,51.34c-4.81,0-9.66-2.41-14.42-7.17c-0.25-0.25-0.25-0.66,0-0.91c4.76-4.76,9.61-7.17,14.42-7.17
			s9.66,2.41,14.42,7.17c0.25,0.25,0.25,0.66,0,0.91C66.14,48.93,61.29,51.34,56.48,51.34z M43.44,43.71
			c4.36,4.21,8.74,6.34,13.04,6.34s8.69-2.13,13.04-6.34c-4.36-4.21-8.74-6.34-13.04-6.34S47.79,39.5,43.44,43.71z"/>
	</g>
	<g>
		<circle cx="50.66" cy="42.55" r="1.16"/>
	</g>
	<g>
		<path d="M79.76,53.67c-0.17,0-0.33-0.06-0.46-0.19c-0.1-0.1-2.52-2.55-2.52-5.11c0-1.94,1.38-3.82,2.1-4.66
			c-0.72-0.84-2.1-2.71-2.1-4.66c0-0.29,0.03-0.57,0.08-0.85l-5.96,5.96c-0.25,0.25-0.66,0.25-0.91,0c-0.25-0.25-0.25-0.66,0-0.91
			l9.31-9.31c0.25-0.25,0.66-0.25,0.91,0c0.13,0.13,0.19,0.29,0.19,0.46c0,0.17-0.06,0.33-0.19,0.46c-0.02,0.02-2.14,2.17-2.14,4.2
			s2.12,4.18,2.14,4.2c0.25,0.25,0.25,0.66,0,0.91c-0.02,0.02-2.14,2.17-2.14,4.2s2.12,4.18,2.14,4.2c0.25,0.25,0.25,0.66,0,0.91
			C80.09,53.6,79.92,53.67,79.76,53.67z"/>
	</g>
	<g>
		<path d="M75.1,53.67c-0.17,0-0.33-0.06-0.46-0.19c-0.1-0.1-2.52-2.55-2.52-5.11c0-2.57,2.41-5.01,2.52-5.11
			c0.25-0.25,0.66-0.25,0.91,0c0.25,0.25,0.25,0.66,0,0.91c-0.04,0.04-2.14,2.18-2.14,4.2c0,1.69,1.54,3.6,2.14,4.2
			c0.25,0.25,0.25,0.66,0,0.91C75.43,53.6,75.27,53.67,75.1,53.67z"/>
	</g>
	<g>
		<path d="M30.87,44.36c-4.81,0-9.66-2.41-14.42-7.17c-0.25-0.25-0.25-0.66,0-0.91c4.76-4.76,9.61-7.17,14.42-7.17
			s9.66,2.41,14.42,7.17c0.25,0.25,0.25,0.66,0,0.91C40.54,41.94,35.69,44.36,30.87,44.36z M17.83,36.73
			c4.36,4.21,8.74,6.34,13.04,6.34s8.69-2.13,13.04-6.34c-4.36-4.21-8.74-6.34-13.04-6.34S22.19,32.52,17.83,36.73z"/>
	</g>
	<g>
		<circle cx="36.69" cy="35.56" r="1.16"/>
	</g>
	<g>
		<path d="M7.6,46.68c-0.17,0-0.33-0.06-0.46-0.19c-0.25-0.25-0.25-0.66,0-0.91c0.02-0.02,2.14-2.17,2.14-4.2
			c0-2.03-2.12-4.18-2.14-4.2c-0.25-0.25-0.25-0.66,0-0.91c0.02-0.02,2.14-2.17,2.14-4.2c0-2.02-2.1-4.16-2.14-4.2
			c-0.25-0.25-0.25-0.66,0-0.91c0.24-0.24,0.62-0.25,0.88-0.03c0,0,0,0,0,0c0,0,0,0,0,0s0,0,0,0c0,0,0,0,0.01,0.01c0,0,0,0,0,0
			c0,0,0,0,0,0c0,0,0,0,0,0c0,0,0,0,0,0c0,0,0,0,0,0c0,0,0,0,0,0c0,0,0,0,0,0c0,0,0,0,0,0c0,0,0,0,0,0c0,0,0.01,0.01,0.01,0.01
			c0,0,0,0,0,0c0,0,0,0,0,0c0,0,0,0,0,0c0,0,0,0,0,0c0,0,0,0,0,0c0,0,0,0,0,0c0,0,0,0,0,0l9.31,9.31c0.25,0.25,0.25,0.66,0,0.91
			c-0.25,0.25-0.66,0.25-0.91,0l-5.96-5.96c0.05,0.28,0.08,0.56,0.08,0.85c0,1.94-1.38,3.82-2.1,4.66c0.72,0.84,2.1,2.71,2.1,4.66
			c0,2.57-2.41,5.01-2.52,5.11C7.93,46.62,7.76,46.68,7.6,46.68z"/>
	</g>
	<g>
		<path d="M12.25,46.68c-0.17,0-0.33-0.06-0.46-0.19c-0.25-0.25-0.25-0.66,0-0.91c0.02-0.02,2.14-2.17,2.14-4.2
			c0-1.69-1.54-3.6-2.14-4.2c-0.25-0.25-0.25-0.66,0-0.91c0.25-0.25,0.66-0.25,0.91,0c0.1,0.1,2.52,2.55,2.52,5.11
			c0,2.57-2.41,5.01-2.52,5.11C12.58,46.62,12.42,46.68,12.25,46.68z"/>
	</g>
</g>
</svg>
