<?xml version="1.0" encoding="utf-8"?>
<!-- Generator: Adobe Illustrator 23.1.0, SVG Export Plug-In . SVG Version: 6.00 Build 0)  -->
<svg version="1.1" id="Слой_1" xmlns="http://www.w3.org/2000/svg" xmlns:xlink="http://www.w3.org/1999/xlink" x="0px" y="0px"
	 viewBox="0 0 141.73 85.04" style="enable-background:new 0 0 141.73 85.04;" xml:space="preserve">
<style type="text/css">
	.st0{fill:#70BFD9;}
	.st1{fill:#FFFFFF;}
	.st2{font-family:'CenturySchoolbook-BoldItalic';}
	.st3{font-size:24.3817px;}
</style>
<ellipse class="st0" cx="56.57" cy="27.88" rx="29.7" ry="28.05"/>
<g>
	<g>
		<path class="st1" d="M73.07,43.65c-6.82,0-13.7-3.42-20.45-10.17c-0.36-0.36-0.36-0.94,0-1.3c6.75-6.75,13.63-10.17,20.45-10.17
			c6.82,0,13.7,3.42,20.45,10.17c0.36,0.36,0.36,0.94,0,1.3C86.77,40.22,79.89,43.65,73.07,43.65z M54.58,32.83
			c6.17,5.96,12.39,8.98,18.49,8.98c6.1,0,12.32-3.02,18.49-8.98c-6.17-5.96-12.39-8.98-18.49-8.98
			C66.97,23.85,60.75,26.87,54.58,32.83z"/>
	</g>
	<g>
		<circle class="st1" cx="64.82" cy="31.18" r="1.65"/>
	</g>
	<g>
		<path class="st1" d="M106.07,46.94c-0.23,0-0.47-0.09-0.65-0.27c-0.15-0.15-3.57-3.61-3.57-7.25c0-2.75,1.96-5.41,2.98-6.6
			c-1.02-1.19-2.98-3.84-2.98-6.6c0-0.41,0.04-0.81,0.12-1.2l-8.45,8.45c-0.36,0.36-0.94,0.36-1.3,0s-0.36-0.94,0-1.3l13.2-13.2
			c0.36-0.36,0.94-0.36,1.3,0c0.18,0.18,0.27,0.41,0.27,0.65c0,0.23-0.09,0.47-0.27,0.65c-0.03,0.03-3.03,3.08-3.03,5.95
			s3,5.92,3.03,5.95c0.36,0.36,0.36,0.94,0,1.3c-0.03,0.03-3.03,3.08-3.03,5.95s3,5.92,3.03,5.95c0.36,0.36,0.36,0.94,0,1.3
			C106.53,46.86,106.3,46.94,106.07,46.94z"/>
	</g>
	<g>
		<path class="st1" d="M99.47,46.94c-0.23,0-0.47-0.09-0.65-0.27c-0.15-0.15-3.57-3.61-3.57-7.25c0-3.64,3.42-7.1,3.57-7.25
			c0.36-0.36,0.94-0.36,1.3,0c0.36,0.36,0.36,0.94,0,1.3c-0.05,0.05-3.03,3.09-3.03,5.95c0,2.4,2.19,5.11,3.03,5.95
			c0.36,0.36,0.36,0.94,0,1.3C99.94,46.86,99.7,46.94,99.47,46.94z"/>
	</g>
	<g>
		<path class="st1" d="M36.78,33.75c-6.82,0-13.7-3.42-20.45-10.17c-0.36-0.36-0.36-0.94,0-1.3c6.75-6.75,13.63-10.17,20.45-10.17
			s13.7,3.42,20.45,10.17c0.36,0.36,0.36,0.94,0,1.3C50.47,30.33,43.6,33.75,36.78,33.75z M18.29,22.93
			c6.17,5.96,12.39,8.98,18.49,8.98s12.32-3.02,18.49-8.98c-6.17-5.96-12.39-8.98-18.49-8.98S24.46,16.97,18.29,22.93z"/>
	</g>
	<g>
		<circle class="st1" cx="45.02" cy="21.28" r="1.65"/>
	</g>
	<g>
		<path class="st1" d="M3.78,37.05c-0.23,0-0.47-0.09-0.65-0.27c-0.36-0.36-0.36-0.94,0-1.3c0.03-0.03,3.03-3.08,3.03-5.95
			s-3-5.92-3.03-5.95c-0.36-0.36-0.36-0.94,0-1.3c0.03-0.03,3.03-3.08,3.03-5.95c0-2.86-2.97-5.89-3.03-5.95
			c-0.36-0.36-0.36-0.94,0-1.3c0.34-0.34,0.89-0.36,1.25-0.05c0,0,0,0,0,0c0,0,0,0,0,0s0,0,0,0c0,0,0.01,0.01,0.01,0.01c0,0,0,0,0,0
			c0,0,0,0,0,0c0,0,0,0,0,0c0,0,0,0,0,0c0,0,0,0,0,0c0,0,0,0,0,0c0,0,0,0,0,0c0,0,0,0,0,0c0,0,0,0,0,0C4.4,9.06,4.41,9.07,4.42,9.07
			c0,0,0,0,0,0c0,0,0,0,0,0c0,0,0,0,0,0c0,0,0,0,0,0c0,0,0,0,0,0c0,0,0,0,0,0c0,0,0,0,0,0l13.2,13.2c0.36,0.36,0.36,0.94,0,1.3
			c-0.36,0.36-0.94,0.36-1.3,0l-8.45-8.45c0.08,0.4,0.12,0.8,0.12,1.2c0,2.75-1.96,5.41-2.98,6.6C6.03,24.12,8,26.78,8,29.53
			c0,3.64-3.42,7.1-3.57,7.25C4.25,36.96,4.01,37.05,3.78,37.05z"/>
	</g>
	<g>
		<path class="st1" d="M10.38,37.05c-0.23,0-0.47-0.09-0.65-0.27c-0.36-0.36-0.36-0.94,0-1.3c0.03-0.03,3.03-3.08,3.03-5.95
			c0-2.4-2.19-5.11-3.03-5.95c-0.36-0.36-0.36-0.94,0-1.3c0.36-0.36,0.94-0.36,1.3,0c0.15,0.15,3.57,3.61,3.57,7.25
			c0,3.64-3.42,7.1-3.57,7.25C10.85,36.96,10.61,37.05,10.38,37.05z"/>
	</g>
</g>
<text transform="matrix(0.6118 0 0 1 -4.882813e-03 77.54)" class="st1 st2 st3">Underwater world</text>
</svg>
